<svg xmlns="http://www.w3.org/2000/svg" xmlns:xlink="http://www.w3.org/1999/xlink" width="500" zoomAndPan="magnify" viewBox="0 0 375 374.999991" height="500" preserveAspectRatio="xMidYMid meet" version="1.0"><defs><g/><clipPath id="66093eed80"><path d="M 74.765625 74.765625 L 300.234375 74.765625 L 300.234375 300.234375 L 74.765625 300.234375 Z M 74.765625 74.765625 " clip-rule="nonzero"/></clipPath><clipPath id="e5d060b393"><path d="M 187.5 74.765625 C 125.238281 74.765625 74.765625 125.238281 74.765625 187.5 C 74.765625 249.761719 125.238281 300.234375 187.5 300.234375 C 249.761719 300.234375 300.234375 249.761719 300.234375 187.5 C 300.234375 125.238281 249.761719 74.765625 187.5 74.765625 Z M 187.5 74.765625 " clip-rule="nonzero"/></clipPath><clipPath id="ce7e82b4c6"><path d="M 108.492188 108.492188 L 266.507812 108.492188 L 266.507812 266.507812 L 108.492188 266.507812 Z M 108.492188 108.492188 " clip-rule="nonzero"/></clipPath><clipPath id="9fbeec1363"><path d="M 187.5 108.492188 C 143.863281 108.492188 108.492188 143.863281 108.492188 187.5 C 108.492188 231.136719 143.863281 266.507812 187.5 266.507812 C 231.136719 266.507812 266.507812 231.136719 266.507812 187.5 C 266.507812 143.863281 231.136719 108.492188 187.5 108.492188 Z M 187.5 108.492188 " clip-rule="nonzero"/></clipPath><clipPath id="2a0e2b6125"><path d="M 187.285156 178.542969 L 258.625 178.542969 L 258.625 224.085938 L 187.285156 224.085938 Z M 187.285156 178.542969 " clip-rule="nonzero"/></clipPath><clipPath id="b815d85921"><path d="M 195.714844 204.171875 L 262.011719 204.171875 L 262.011719 220.503906 L 195.714844 220.503906 Z M 195.714844 204.171875 " clip-rule="nonzero"/></clipPath><clipPath id="c1108e2b9f"><path d="M 116.699219 176.785156 L 187.410156 176.785156 L 187.410156 224.085938 L 116.699219 224.085938 Z M 116.699219 176.785156 " clip-rule="nonzero"/></clipPath><clipPath id="e229899fe9"><path d="M 112.777344 202 L 179 202 L 179 221 L 112.777344 221 Z M 112.777344 202 " clip-rule="nonzero"/></clipPath><clipPath id="c653ca9689"><path d="M 212 137.835938 L 218 137.835938 L 218 143 L 212 143 Z M 212 137.835938 " clip-rule="nonzero"/></clipPath><clipPath id="7ce54f20a2"><path d="M 88.269531 189.742188 L 100.433594 189.742188 L 100.433594 201.902344 L 88.269531 201.902344 Z M 88.269531 189.742188 " clip-rule="nonzero"/></clipPath><clipPath id="49d2b8cafb"><path d="M 94.351562 189.742188 C 90.992188 189.742188 88.269531 192.464844 88.269531 195.820312 C 88.269531 199.179688 90.992188 201.902344 94.351562 201.902344 C 97.710938 201.902344 100.433594 199.179688 100.433594 195.820312 C 100.433594 192.464844 97.710938 189.742188 94.351562 189.742188 Z M 94.351562 189.742188 " clip-rule="nonzero"/></clipPath><clipPath id="1ba1b97194"><path d="M 274.757812 189.742188 L 286.921875 189.742188 L 286.921875 201.902344 L 274.757812 201.902344 Z M 274.757812 189.742188 " clip-rule="nonzero"/></clipPath><clipPath id="84ec60acdd"><path d="M 280.839844 189.742188 C 277.480469 189.742188 274.757812 192.464844 274.757812 195.820312 C 274.757812 199.179688 277.480469 201.902344 280.839844 201.902344 C 284.199219 201.902344 286.921875 199.179688 286.921875 195.820312 C 286.921875 192.464844 284.199219 189.742188 280.839844 189.742188 Z M 280.839844 189.742188 " clip-rule="nonzero"/></clipPath></defs><g clip-path="url(#66093eed80)"><g clip-path="url(#e5d060b393)"><path fill="#00609e" d="M 74.765625 74.765625 L 300.234375 74.765625 L 300.234375 300.234375 L 74.765625 300.234375 Z M 74.765625 74.765625 " fill-opacity="1" fill-rule="nonzero"/></g></g><g clip-path="url(#ce7e82b4c6)"><g clip-path="url(#9fbeec1363)"><path fill="#ffffff" d="M 108.492188 108.492188 L 266.507812 108.492188 L 266.507812 266.507812 L 108.492188 266.507812 Z M 108.492188 108.492188 " fill-opacity="1" fill-rule="nonzero"/></g></g><g clip-path="url(#2a0e2b6125)"><path fill="#36a5dd" d="M 237.03125 178.609375 L 258.605469 201.222656 C 210.589844 201.320312 187.289062 224.085938 187.289062 224.085938 C 187.289062 224.085938 199.070312 186.789062 237.03125 178.609375 " fill-opacity="1" fill-rule="nonzero"/></g><g clip-path="url(#b815d85921)"><path fill="#00609e" d="M 262.011719 218.882812 C 230.402344 211.191406 207.324219 216.3125 195.730469 220.414062 C 205.164062 214.449219 222.523438 206.160156 248.074219 204.273438 L 262.011719 218.882812 " fill-opacity="1" fill-rule="nonzero"/></g><g clip-path="url(#c1108e2b9f)"><path fill="#36a5dd" d="M 139.179688 176.890625 L 116.824219 198.730469 C 164.804688 200.515625 187.289062 224.085938 187.289062 224.085938 C 187.289062 224.085938 176.832031 186.398438 139.179688 176.890625 " fill-opacity="1" fill-rule="nonzero"/></g><g clip-path="url(#e229899fe9)"><path fill="#00609e" d="M 112.796875 216.261719 C 144.65625 209.6875 167.539062 215.613281 178.984375 220.121094 C 169.765625 213.828125 152.710938 204.933594 127.242188 202.148438 L 112.796875 216.261719 " fill-opacity="1" fill-rule="nonzero"/></g><path fill="#cea348" d="M 242.0625 165.472656 L 238.96875 173.558594 C 218.925781 177.609375 205.828125 190.253906 198.359375 200.164062 C 204.671875 188.691406 217.949219 171.175781 242.0625 165.472656 " fill-opacity="1" fill-rule="nonzero"/><path fill="#cea348" d="M 133.335938 163.246094 L 136.160156 171.488281 C 156.777344 175.976562 169.808594 189.410156 177.070312 199.789062 C 171.0625 187.894531 158.0625 169.492188 133.335938 163.246094 " fill-opacity="1" fill-rule="nonzero"/><path fill="#00609e" d="M 187.855469 192.058594 C 187.855469 192.058594 176.644531 172.175781 161.128906 167.433594 C 161.128906 167.433594 183.570312 186.75 187.328125 221.871094 C 192.324219 186.902344 215.429688 168.390625 215.429688 168.390625 C 199.753906 172.582031 187.855469 192.058594 187.855469 192.058594 " fill-opacity="1" fill-rule="nonzero"/><path fill="#00609e" d="M 195.476562 173.125 C 195.554688 168.683594 192.355469 165.027344 188.332031 164.957031 C 184.308594 164.886719 180.980469 168.429688 180.902344 172.867188 C 180.824219 177.308594 184.023438 180.964844 188.046875 181.035156 C 192.074219 181.105469 195.398438 177.566406 195.476562 173.125 " fill-opacity="1" fill-rule="nonzero"/><path fill="#36a5dd" d="M 197.867188 146.523438 L 184.695312 146.289062 L 184.460938 159.441406 L 197.632812 159.675781 L 197.867188 146.523438 " fill-opacity="1" fill-rule="nonzero"/><path fill="#36a5dd" d="M 204.566406 140.0625 L 197.980469 139.945312 L 197.867188 146.523438 L 204.453125 146.636719 L 204.566406 140.0625 " fill-opacity="1" fill-rule="nonzero"/><path fill="#00609e" d="M 217.570312 155.898438 L 210.984375 155.78125 L 210.871094 162.355469 L 217.457031 162.472656 L 217.570312 155.898438 " fill-opacity="1" fill-rule="nonzero"/><path fill="#cea348" d="M 205.917969 153.242188 L 202.753906 153.1875 L 202.699219 156.347656 L 205.863281 156.402344 L 205.917969 153.242188 " fill-opacity="1" fill-rule="nonzero"/><path fill="#cea348" d="M 236.9375 148.148438 L 230.863281 148.042969 L 230.757812 154.109375 L 236.832031 154.214844 L 236.9375 148.148438 " fill-opacity="1" fill-rule="nonzero"/><path fill="#f8b31a" d="M 225.421875 162.019531 L 222.257812 161.960938 L 222.203125 165.125 L 225.367188 165.179688 L 225.421875 162.019531 " fill-opacity="1" fill-rule="nonzero"/><g clip-path="url(#c653ca9689)"><path fill="#cea348" d="M 217.632812 137.921875 L 212.882812 137.835938 L 212.800781 142.578125 L 217.546875 142.660156 L 217.632812 137.921875 " fill-opacity="1" fill-rule="nonzero"/></g><path fill="#f8b31a" d="M 223.28125 144.574219 L 218.488281 144.488281 L 218.402344 149.277344 L 223.199219 149.363281 L 223.28125 144.574219 " fill-opacity="1" fill-rule="nonzero"/><g fill="#ffffff" fill-opacity="1"><g transform="translate(103.707613, 159.972955)"><g><path d="M -1.828125 -10.734375 L 3.59375 -8.421875 L 2.3125 -5.421875 L -3.109375 -7.734375 L -14.421875 -6.78125 L -13 -10.140625 L -5.234375 -10.375 L -10.515625 -15.9375 L -9.078125 -19.3125 Z M -1.828125 -10.734375 "/></g></g></g><g fill="#ffffff" fill-opacity="1"><g transform="translate(108.921554, 147.305479)"><g><path d="M -2 -3.4375 C -3.394531 -3.59375 -4.769531 -4.101562 -6.125 -4.96875 C -7.476562 -5.84375 -8.515625 -6.882812 -9.234375 -8.09375 C -9.960938 -9.300781 -10.3125 -10.585938 -10.28125 -11.953125 C -10.25 -13.328125 -9.820312 -14.648438 -9 -15.921875 C -7.75 -17.867188 -6.085938 -19.015625 -4.015625 -19.359375 C -1.953125 -19.703125 0.144531 -19.191406 2.28125 -17.828125 C 3.238281 -17.203125 4.039062 -16.46875 4.6875 -15.625 C 5.332031 -14.78125 5.789062 -13.882812 6.0625 -12.9375 C 6.34375 -12 6.398438 -11.003906 6.234375 -9.953125 C 6.078125 -8.910156 5.675781 -7.894531 5.03125 -6.90625 C 4.207031 -5.625 3.175781 -4.6875 1.9375 -4.09375 C 0.707031 -3.5 -0.601562 -3.28125 -2 -3.4375 Z M -6.65625 -14.421875 C -7.363281 -13.304688 -7.507812 -12.140625 -7.09375 -10.921875 C -6.675781 -9.710938 -5.757812 -8.65625 -4.34375 -7.75 C -2.945312 -6.84375 -1.601562 -6.445312 -0.3125 -6.5625 C 0.96875 -6.6875 1.960938 -7.304688 2.671875 -8.421875 C 3.390625 -9.523438 3.546875 -10.6875 3.140625 -11.90625 C 2.734375 -13.132812 1.847656 -14.1875 0.484375 -15.0625 C -0.972656 -16 -2.34375 -16.410156 -3.625 -16.296875 C -4.90625 -16.179688 -5.914062 -15.554688 -6.65625 -14.421875 Z M -6.65625 -14.421875 "/></g></g></g><g fill="#ffffff" fill-opacity="1"><g transform="translate(117.596595, 133.776475)"><g><path d="M 5.78125 -5.515625 C 5.382812 -5.085938 4.96875 -4.707031 4.53125 -4.375 C 4.09375 -4.039062 3.578125 -3.75 2.984375 -3.5 C 2.390625 -3.257812 1.800781 -3.125 1.21875 -3.09375 C 0.632812 -3.0625 0.00390625 -3.171875 -0.671875 -3.421875 C -1.347656 -3.679688 -2.003906 -4.109375 -2.640625 -4.703125 L -10.578125 -12.046875 L -8.34375 -14.453125 L -0.40625 -7.109375 C 0.3125 -6.453125 1.003906 -6.148438 1.671875 -6.203125 C 2.335938 -6.265625 3.019531 -6.675781 3.71875 -7.4375 C 4.414062 -8.1875 4.765625 -8.894531 4.765625 -9.5625 C 4.765625 -10.238281 4.410156 -10.90625 3.703125 -11.5625 L -4.234375 -18.90625 L -2 -21.3125 L 5.9375 -13.96875 C 6.570312 -13.375 7.039062 -12.75 7.34375 -12.09375 C 7.65625 -11.445312 7.816406 -10.828125 7.828125 -10.234375 C 7.835938 -9.648438 7.75 -9.054688 7.5625 -8.453125 C 7.375 -7.859375 7.125 -7.320312 6.8125 -6.84375 C 6.507812 -6.375 6.164062 -5.929688 5.78125 -5.515625 Z M 5.78125 -5.515625 "/></g></g></g><g fill="#ffffff" fill-opacity="1"><g transform="translate(127.655106, 122.796919)"><g><path d="M 6.875 -8.75 C 6.613281 -9.09375 6.410156 -9.359375 6.265625 -9.546875 C 6.117188 -9.742188 5.984375 -9.921875 5.859375 -10.078125 C 5.460938 -10.597656 5.039062 -10.882812 4.59375 -10.9375 C 4.15625 -10.988281 3.65625 -10.800781 3.09375 -10.375 L 0.125 -8.078125 L 3.984375 -3.0625 L 1.390625 -1.0625 L -8.328125 -13.6875 L -1.578125 -18.890625 C -1.054688 -19.296875 -0.53125 -19.582031 0 -19.75 C 0.519531 -19.914062 0.992188 -19.972656 1.421875 -19.921875 C 1.847656 -19.878906 2.257812 -19.765625 2.65625 -19.578125 C 3.050781 -19.390625 3.390625 -19.171875 3.671875 -18.921875 C 3.960938 -18.671875 4.222656 -18.394531 4.453125 -18.09375 C 5.640625 -16.550781 5.726562 -14.960938 4.71875 -13.328125 C 5.03125 -13.410156 5.269531 -13.46875 5.4375 -13.5 C 5.613281 -13.539062 5.816406 -13.566406 6.046875 -13.578125 C 6.273438 -13.585938 6.445312 -13.578125 6.5625 -13.546875 C 6.6875 -13.515625 6.859375 -13.429688 7.078125 -13.296875 C 7.296875 -13.160156 7.472656 -13.023438 7.609375 -12.890625 C 7.742188 -12.765625 7.953125 -12.539062 8.234375 -12.21875 C 8.523438 -11.90625 8.789062 -11.601562 9.03125 -11.3125 C 9.269531 -11.019531 9.597656 -10.613281 10.015625 -10.09375 C 10.222656 -9.820312 10.425781 -9.640625 10.625 -9.546875 C 10.832031 -9.453125 11.082031 -9.429688 11.375 -9.484375 L 11.734375 -9.03125 L 8.9375 -6.875 C 8.539062 -7.050781 8.210938 -7.257812 7.953125 -7.5 C 7.691406 -7.738281 7.332031 -8.15625 6.875 -8.75 Z M 2.15625 -15.734375 C 1.894531 -16.066406 1.632812 -16.3125 1.375 -16.46875 C 1.125 -16.632812 0.863281 -16.703125 0.59375 -16.671875 C 0.332031 -16.640625 0.0859375 -16.566406 -0.140625 -16.453125 C -0.367188 -16.335938 -0.632812 -16.160156 -0.9375 -15.921875 L -4.0625 -13.515625 L -1.53125 -10.234375 L 1.59375 -12.640625 C 1.882812 -12.867188 2.113281 -13.078125 2.28125 -13.265625 C 2.457031 -13.460938 2.59375 -13.679688 2.6875 -13.921875 C 2.78125 -14.171875 2.78125 -14.445312 2.6875 -14.75 C 2.601562 -15.050781 2.425781 -15.378906 2.15625 -15.734375 Z M 2.15625 -15.734375 "/></g></g></g><g fill="#ffffff" fill-opacity="1"><g transform="translate(139.850561, 113.731091)"><g/></g></g><g fill="#ffffff" fill-opacity="1"><g transform="translate(144.498707, 110.646001)"><g><path d="M 7.46875 -15.5625 L 4.671875 -14.28125 C 4.304688 -15.019531 3.773438 -15.460938 3.078125 -15.609375 C 2.390625 -15.753906 1.566406 -15.613281 0.609375 -15.1875 C -0.148438 -14.832031 -0.679688 -14.390625 -0.984375 -13.859375 C -1.296875 -13.335938 -1.328125 -12.800781 -1.078125 -12.25 C -0.835938 -11.726562 -0.46875 -11.421875 0.03125 -11.328125 C 0.53125 -11.242188 1.363281 -11.34375 2.53125 -11.625 L 5 -12.21875 C 6.457031 -12.550781 7.632812 -12.539062 8.53125 -12.1875 C 9.425781 -11.84375 10.128906 -11.101562 10.640625 -9.96875 C 11.316406 -8.5 11.316406 -7.109375 10.640625 -5.796875 C 9.972656 -4.492188 8.707031 -3.421875 6.84375 -2.578125 C 5 -1.734375 3.375 -1.484375 1.96875 -1.828125 C 0.5625 -2.171875 -0.535156 -3.101562 -1.328125 -4.625 L 1.578125 -5.9375 C 1.972656 -5.1875 2.539062 -4.734375 3.28125 -4.578125 C 4.03125 -4.421875 4.910156 -4.570312 5.921875 -5.03125 C 6.828125 -5.445312 7.460938 -5.941406 7.828125 -6.515625 C 8.191406 -7.097656 8.234375 -7.695312 7.953125 -8.3125 C 7.691406 -8.894531 7.28125 -9.25 6.71875 -9.375 C 6.164062 -9.5 5.347656 -9.429688 4.265625 -9.171875 L 2.078125 -8.65625 C 0.472656 -8.257812 -0.769531 -8.21875 -1.65625 -8.53125 C -2.550781 -8.851562 -3.257812 -9.578125 -3.78125 -10.703125 C -4.414062 -12.109375 -4.429688 -13.414062 -3.828125 -14.625 C -3.222656 -15.84375 -2.050781 -16.847656 -0.3125 -17.640625 C 0.0195312 -17.796875 0.359375 -17.929688 0.703125 -18.046875 C 1.054688 -18.160156 1.445312 -18.257812 1.875 -18.34375 C 2.3125 -18.4375 2.726562 -18.488281 3.125 -18.5 C 3.519531 -18.519531 3.925781 -18.476562 4.34375 -18.375 C 4.769531 -18.269531 5.164062 -18.109375 5.53125 -17.890625 C 5.894531 -17.671875 6.242188 -17.363281 6.578125 -16.96875 C 6.921875 -16.582031 7.21875 -16.113281 7.46875 -15.5625 Z M 7.46875 -15.5625 "/></g></g></g><g fill="#ffffff" fill-opacity="1"><g transform="translate(156.946807, 104.847729)"><g><path d="M 8.59375 -13.25 C 8.5 -13.425781 8.410156 -13.570312 8.328125 -13.6875 C 8.253906 -13.8125 8.132812 -13.984375 7.96875 -14.203125 C 7.8125 -14.421875 7.628906 -14.597656 7.421875 -14.734375 C 7.210938 -14.867188 6.96875 -14.992188 6.6875 -15.109375 C 6.414062 -15.234375 6.097656 -15.289062 5.734375 -15.28125 C 5.367188 -15.28125 4.972656 -15.222656 4.546875 -15.109375 C 3.316406 -14.773438 2.476562 -14.03125 2.03125 -12.875 C 1.582031 -11.726562 1.585938 -10.3125 2.046875 -8.625 C 2.503906 -6.9375 3.203125 -5.71875 4.140625 -4.96875 C 5.078125 -4.21875 6.15625 -4.007812 7.375 -4.34375 C 8.351562 -4.601562 9.066406 -5.082031 9.515625 -5.78125 C 9.960938 -6.476562 10.097656 -7.335938 9.921875 -8.359375 L 13 -9.1875 C 13.382812 -7.40625 13.125 -5.832031 12.21875 -4.46875 C 11.3125 -3.113281 9.910156 -2.175781 8.015625 -1.65625 C 5.867188 -1.070312 3.972656 -1.332031 2.328125 -2.4375 C 0.691406 -3.539062 -0.457031 -5.320312 -1.125 -7.78125 C -1.800781 -10.28125 -1.707031 -12.425781 -0.84375 -14.21875 C 0.0195312 -16.007812 1.539062 -17.203125 3.71875 -17.796875 C 5.53125 -18.285156 7.148438 -18.203125 8.578125 -17.546875 C 10.015625 -16.890625 11.03125 -15.726562 11.625 -14.0625 Z M 8.59375 -13.25 "/></g></g></g><g fill="#ffffff" fill-opacity="1"><g transform="translate(171.29629, 100.870718)"><g><path d="M 10.3125 -8.265625 L 4.03125 -7.640625 L 4.734375 -0.453125 L 1.484375 -0.140625 L -0.0625 -16 L 3.1875 -16.3125 L 3.765625 -10.375 L 10.046875 -11 L 9.46875 -16.9375 L 12.75 -17.25 L 14.296875 -1.390625 L 11.015625 -1.078125 Z M 10.3125 -8.265625 "/></g></g></g><g fill="#ffffff" fill-opacity="1"><g transform="translate(186.069309, 99.298485)"><g><path d="M 2.078125 -3.390625 C 1.554688 -4.691406 1.359375 -6.144531 1.484375 -7.75 C 1.609375 -9.351562 2.03125 -10.757812 2.75 -11.96875 C 3.46875 -13.175781 4.429688 -14.09375 5.640625 -14.71875 C 6.859375 -15.34375 8.222656 -15.597656 9.734375 -15.484375 C 12.046875 -15.296875 13.84375 -14.375 15.125 -12.71875 C 16.414062 -11.0625 16.960938 -8.972656 16.765625 -6.453125 C 16.679688 -5.304688 16.421875 -4.25 15.984375 -3.28125 C 15.546875 -2.3125 14.972656 -1.476562 14.265625 -0.78125 C 13.566406 -0.09375 12.71875 0.421875 11.71875 0.765625 C 10.726562 1.117188 9.644531 1.25 8.46875 1.15625 C 6.945312 1.039062 5.628906 0.582031 4.515625 -0.21875 C 3.410156 -1.03125 2.597656 -2.085938 2.078125 -3.390625 Z M 9.546875 -12.6875 C 8.234375 -12.78125 7.132812 -12.351562 6.25 -11.40625 C 5.375 -10.46875 4.875 -9.160156 4.75 -7.484375 C 4.625 -5.828125 4.914062 -4.460938 5.625 -3.390625 C 6.34375 -2.328125 7.359375 -1.75 8.671875 -1.65625 C 9.984375 -1.550781 11.082031 -1.960938 11.96875 -2.890625 C 12.851562 -3.828125 13.363281 -5.109375 13.5 -6.734375 C 13.625 -8.453125 13.332031 -9.847656 12.625 -10.921875 C 11.925781 -11.992188 10.898438 -12.582031 9.546875 -12.6875 Z M 9.546875 -12.6875 "/></g></g></g><g fill="#ffffff" fill-opacity="1"><g transform="translate(202.065344, 100.457942)"><g><path d="M 2.65625 -2.953125 C 2.375 -4.328125 2.4375 -5.789062 2.84375 -7.34375 C 3.257812 -8.90625 3.929688 -10.21875 4.859375 -11.28125 C 5.785156 -12.34375 6.898438 -13.066406 8.203125 -13.453125 C 9.515625 -13.847656 10.90625 -13.847656 12.375 -13.453125 C 14.601562 -12.867188 16.203125 -11.644531 17.171875 -9.78125 C 18.140625 -7.914062 18.300781 -5.757812 17.65625 -3.3125 C 17.363281 -2.207031 16.914062 -1.21875 16.3125 -0.34375 C 15.707031 0.519531 15 1.226562 14.1875 1.78125 C 13.375 2.34375 12.441406 2.707031 11.390625 2.875 C 10.347656 3.039062 9.257812 2.972656 8.125 2.671875 C 6.644531 2.273438 5.429688 1.582031 4.484375 0.59375 C 3.546875 -0.394531 2.9375 -1.578125 2.65625 -2.953125 Z M 11.671875 -10.75 C 10.390625 -11.09375 9.234375 -10.878906 8.203125 -10.109375 C 7.179688 -9.335938 6.457031 -8.140625 6.03125 -6.515625 C 5.601562 -4.910156 5.644531 -3.515625 6.15625 -2.328125 C 6.664062 -1.148438 7.5625 -0.390625 8.84375 -0.046875 C 10.113281 0.285156 11.265625 0.0703125 12.296875 -0.6875 C 13.335938 -1.445312 14.066406 -2.609375 14.484375 -4.171875 C 14.929688 -5.847656 14.898438 -7.273438 14.390625 -8.453125 C 13.878906 -9.640625 12.972656 -10.40625 11.671875 -10.75 Z M 11.671875 -10.75 "/></g></g></g><g fill="#ffffff" fill-opacity="1"><g transform="translate(217.648872, 104.668305)"><g><path d="M 11.109375 -12.484375 L 5.71875 -0.453125 L 12.65625 2.65625 L 11.53125 5.171875 L 1.59375 0.71875 L 8.109375 -13.828125 Z M 11.109375 -12.484375 "/></g></g></g><g fill="#ffffff" fill-opacity="1"><g transform="translate(229.316681, 110.073118)"><g/></g></g><g fill="#ffffff" fill-opacity="1"><g transform="translate(234.277765, 112.703802)"><g><path d="M 13.453125 -9.90625 L 5.6875 0.75 L 11.84375 5.234375 L 10.21875 7.453125 L 1.40625 1.03125 L 10.796875 -11.84375 Z M 13.453125 -9.90625 "/></g></g></g><g fill="#ffffff" fill-opacity="1"><g transform="translate(244.514755, 119.905942)"><g><path d="M 3.78125 -1.1875 C 4.238281 -2.519531 5.039062 -3.75 6.1875 -4.875 C 7.332031 -6.007812 8.578125 -6.796875 9.921875 -7.234375 C 11.265625 -7.679688 12.597656 -7.742188 13.921875 -7.421875 C 15.242188 -7.097656 16.441406 -6.394531 17.515625 -5.3125 C 19.140625 -3.664062 19.890625 -1.796875 19.765625 0.296875 C 19.648438 2.398438 18.691406 4.335938 16.890625 6.109375 C 16.078125 6.921875 15.1875 7.546875 14.21875 7.984375 C 13.25 8.429688 12.273438 8.6875 11.296875 8.75 C 10.316406 8.820312 9.332031 8.660156 8.34375 8.265625 C 7.363281 7.867188 6.457031 7.253906 5.625 6.421875 C 4.550781 5.328125 3.863281 4.113281 3.5625 2.78125 C 3.257812 1.457031 3.332031 0.132812 3.78125 -1.1875 Z M 15.515625 -3.328125 C 14.585938 -4.273438 13.484375 -4.675781 12.203125 -4.53125 C 10.929688 -4.394531 9.695312 -3.738281 8.5 -2.5625 C 7.3125 -1.382812 6.632812 -0.160156 6.46875 1.109375 C 6.3125 2.390625 6.695312 3.503906 7.625 4.453125 C 8.550781 5.378906 9.65625 5.78125 10.9375 5.65625 C 12.21875 5.53125 13.4375 4.898438 14.59375 3.765625 C 15.820312 2.546875 16.519531 1.296875 16.6875 0.015625 C 16.863281 -1.253906 16.472656 -2.367188 15.515625 -3.328125 Z M 15.515625 -3.328125 "/></g></g></g><g fill="#ffffff" fill-opacity="1"><g transform="translate(255.838768, 131.263038)"><g><path d="M 15.96875 4.203125 C 16.457031 3.566406 16.722656 2.863281 16.765625 2.09375 C 16.804688 1.320312 16.535156 0.5 15.953125 -0.375 C 15.171875 -1.519531 14.148438 -2.144531 12.890625 -2.25 C 11.628906 -2.351562 10.296875 -1.925781 8.890625 -0.96875 C 7.523438 -0.0390625 6.648438 1.0625 6.265625 2.34375 C 5.890625 3.632812 6.070312 4.828125 6.8125 5.921875 C 6.9375 6.097656 7.09375 6.285156 7.28125 6.484375 C 7.476562 6.679688 7.75 6.890625 8.09375 7.109375 C 8.4375 7.335938 8.796875 7.515625 9.171875 7.640625 C 9.546875 7.765625 9.984375 7.804688 10.484375 7.765625 C 10.992188 7.722656 11.503906 7.566406 12.015625 7.296875 L 9.96875 4.296875 L 12.234375 2.765625 L 15.796875 8.015625 L 8.6875 12.859375 L 7.59375 11.25 L 9.09375 9.734375 C 8.019531 9.722656 7.101562 9.519531 6.34375 9.125 C 5.582031 8.726562 4.898438 8.082031 4.296875 7.1875 C 3.492188 6.019531 3.066406 4.765625 3.015625 3.421875 C 2.972656 2.085938 3.296875 0.800781 3.984375 -0.4375 C 4.679688 -1.6875 5.6875 -2.753906 7 -3.640625 C 9.050781 -5.035156 11.113281 -5.578125 13.1875 -5.265625 C 15.269531 -4.960938 16.953125 -3.867188 18.234375 -1.984375 C 19.316406 -0.390625 19.804688 1.191406 19.703125 2.765625 C 19.609375 4.347656 18.9375 5.671875 17.6875 6.734375 Z M 15.96875 4.203125 "/></g></g></g><g fill="#ffffff" fill-opacity="1"><g transform="translate(264.930131, 144.475349)"><g><path d="M 3.96875 0.21875 C 4.863281 -0.851562 6.046875 -1.710938 7.515625 -2.359375 C 8.992188 -3.015625 10.4375 -3.3125 11.84375 -3.25 C 13.25 -3.1875 14.515625 -2.769531 15.640625 -2 C 16.765625 -1.226562 17.632812 -0.148438 18.25 1.234375 C 19.1875 3.359375 19.226562 5.378906 18.375 7.296875 C 17.53125 9.210938 15.953125 10.679688 13.640625 11.703125 C 12.585938 12.160156 11.53125 12.425781 10.46875 12.5 C 9.414062 12.582031 8.414062 12.476562 7.46875 12.1875 C 6.53125 11.90625 5.664062 11.40625 4.875 10.6875 C 4.09375 9.976562 3.46875 9.082031 3 8 C 2.375 6.601562 2.15625 5.226562 2.34375 3.875 C 2.53125 2.519531 3.070312 1.300781 3.96875 0.21875 Z M 15.703125 2.390625 C 15.160156 1.179688 14.265625 0.414062 13.015625 0.09375 C 11.773438 -0.226562 10.390625 -0.0507812 8.859375 0.625 C 7.335938 1.300781 6.269531 2.207031 5.65625 3.34375 C 5.050781 4.476562 5.019531 5.648438 5.5625 6.859375 C 6.09375 8.066406 6.976562 8.835938 8.21875 9.171875 C 9.46875 9.515625 10.835938 9.359375 12.328125 8.703125 C 13.910156 7.992188 15.003906 7.070312 15.609375 5.9375 C 16.210938 4.8125 16.242188 3.628906 15.703125 2.390625 Z M 15.703125 2.390625 "/></g></g></g><g fill="#ffffff" fill-opacity="1"><g transform="translate(92.624, 216.219633)"><g><path d="M 9.5 8.796875 C 8.425781 9.222656 7.40625 9.390625 6.4375 9.296875 C 5.46875 9.210938 4.613281 8.875 3.875 8.28125 C 3.144531 7.6875 2.578125 6.875 2.171875 5.84375 C 1.742188 4.78125 1.585938 3.785156 1.703125 2.859375 C 1.828125 1.929688 2.210938 1.101562 2.859375 0.375 C 3.515625 -0.34375 4.378906 -0.914062 5.453125 -1.34375 C 7.085938 -2 8.539062 -2.0625 9.8125 -1.53125 C 11.09375 -1.007812 12.050781 0.0507812 12.6875 1.65625 C 13.101562 2.6875 13.253906 3.664062 13.140625 4.59375 C 13.035156 5.519531 12.671875 6.34375 12.046875 7.0625 C 11.421875 7.789062 10.570312 8.367188 9.5 8.796875 Z M 8.9375 7.375 C 10.195312 6.863281 11.0625 6.144531 11.53125 5.21875 C 12.007812 4.300781 12.019531 3.265625 11.5625 2.109375 C 11.09375 0.929688 10.367188 0.171875 9.390625 -0.171875 C 8.421875 -0.523438 7.296875 -0.445312 6.015625 0.0625 C 4.722656 0.570312 3.828125 1.296875 3.328125 2.234375 C 2.835938 3.179688 2.828125 4.234375 3.296875 5.390625 C 3.765625 6.566406 4.484375 7.320312 5.453125 7.65625 C 6.429688 8 7.59375 7.90625 8.9375 7.375 Z M 8.9375 7.375 "/></g></g></g><g fill="#ffffff" fill-opacity="1"><g transform="translate(97.520334, 228.309864)"><g><path d="M 4.09375 7.390625 L 9.453125 -2.3125 L 8.8125 -1.90625 L 7.671875 -1.234375 L 1.28125 2.3125 L 0.640625 1.140625 L 10.28125 -4.203125 L 11.125 -2.671875 L 5.734375 7.109375 C 6.597656 6.546875 7.234375 6.15625 7.640625 5.9375 L 13.953125 2.4375 L 14.609375 3.625 L 4.96875 8.96875 Z M 4.09375 7.390625 "/></g></g></g><g fill="#ffffff" fill-opacity="1"><g transform="translate(103.456427, 238.804879)"><g><path d="M 0.75 1.078125 L 9.75 -5.265625 L 10.625 -4.046875 L 2.625 1.59375 L 5.828125 6.140625 L 4.828125 6.84375 Z M 0.75 1.078125 "/></g></g></g><g fill="#ffffff" fill-opacity="1"><g transform="translate(108.844931, 246.291423)"><g><path d="M 0.9375 1.15625 L 9.46875 -5.8125 L 10.40625 -4.671875 L 1.875 2.296875 Z M 0.9375 1.15625 "/></g></g></g><g fill="#ffffff" fill-opacity="1"><g transform="translate(111.805971, 250.133222)"><g><path d="M 5.875 6.078125 L 8.515625 -4.671875 L 8.015625 -4.125 L 7.09375 -3.1875 L 1.84375 1.890625 L 0.90625 0.9375 L 8.828125 -6.71875 L 10.046875 -5.46875 L 7.40625 5.375 C 8.082031 4.625 8.585938 4.085938 8.921875 3.765625 L 14.109375 -1.25 L 15.046875 -0.296875 L 7.125 7.359375 Z M 5.875 6.078125 "/></g></g></g><g fill="#ffffff" fill-opacity="1"><g transform="translate(120.267675, 258.792011)"><g><path d="M 1.015625 0.828125 L 7.984375 -7.703125 L 14.46875 -2.421875 L 13.6875 -1.484375 L 8.359375 -5.8125 L 6.140625 -3.078125 L 11.09375 0.953125 L 10.328125 1.890625 L 5.375 -2.140625 L 2.9375 0.84375 L 8.5 5.375 L 7.734375 6.3125 Z M 1.015625 0.828125 "/></g></g></g><g fill="#ffffff" fill-opacity="1"><g transform="translate(128.907199, 265.664381)"><g/></g></g><g fill="#ffffff" fill-opacity="1"><g transform="translate(132.81844, 268.532082)"><g><path d="M 10.328125 -5.5625 C 9.265625 -6.164062 8.242188 -6.296875 7.265625 -5.953125 C 6.285156 -5.617188 5.457031 -4.859375 4.78125 -3.671875 C 4.101562 -2.492188 3.867188 -1.375 4.078125 -0.3125 C 4.285156 0.75 4.910156 1.578125 5.953125 2.171875 C 7.285156 2.941406 8.675781 2.859375 10.125 1.921875 L 10.875 3.0625 C 10 3.65625 9.082031 3.960938 8.125 3.984375 C 7.175781 4.015625 6.234375 3.757812 5.296875 3.21875 C 4.328125 2.664062 3.601562 1.984375 3.125 1.171875 C 2.65625 0.367188 2.445312 -0.503906 2.5 -1.453125 C 2.5625 -2.410156 2.882812 -3.398438 3.46875 -4.421875 C 4.34375 -5.941406 5.4375 -6.894531 6.75 -7.28125 C 8.070312 -7.675781 9.460938 -7.457031 10.921875 -6.625 C 11.941406 -6.03125 12.675781 -5.335938 13.125 -4.546875 C 13.582031 -3.765625 13.742188 -2.894531 13.609375 -1.9375 L 12.15625 -2.234375 C 12.238281 -2.910156 12.125 -3.535156 11.8125 -4.109375 C 11.5 -4.691406 11.003906 -5.175781 10.328125 -5.5625 Z M 10.328125 -5.5625 "/></g></g></g><g fill="#ffffff" fill-opacity="1"><g transform="translate(143.370738, 274.568771)"><g><path d="M 12.9375 -0.65625 C 12.488281 0.414062 11.890625 1.265625 11.140625 1.890625 C 10.398438 2.515625 9.5625 2.882812 8.625 3 C 7.6875 3.113281 6.707031 2.957031 5.6875 2.53125 C 4.632812 2.09375 3.816406 1.503906 3.234375 0.765625 C 2.660156 0.0351562 2.335938 -0.8125 2.265625 -1.78125 C 2.203125 -2.75 2.394531 -3.769531 2.84375 -4.84375 C 3.507812 -6.46875 4.476562 -7.550781 5.75 -8.09375 C 7.019531 -8.632812 8.445312 -8.578125 10.03125 -7.921875 C 11.0625 -7.492188 11.875 -6.914062 12.46875 -6.1875 C 13.0625 -5.46875 13.394531 -4.628906 13.46875 -3.671875 C 13.550781 -2.722656 13.375 -1.71875 12.9375 -0.65625 Z M 11.515625 -1.25 C 12.035156 -2.507812 12.128906 -3.628906 11.796875 -4.609375 C 11.460938 -5.585938 10.71875 -6.316406 9.5625 -6.796875 C 8.40625 -7.273438 7.363281 -7.289062 6.4375 -6.84375 C 5.507812 -6.40625 4.78125 -5.546875 4.25 -4.265625 C 3.71875 -2.984375 3.613281 -1.835938 3.9375 -0.828125 C 4.269531 0.179688 5.007812 0.925781 6.15625 1.40625 C 7.320312 1.894531 8.367188 1.90625 9.296875 1.4375 C 10.222656 0.976562 10.960938 0.0820312 11.515625 -1.25 Z M 11.515625 -1.25 "/></g></g></g><g fill="#ffffff" fill-opacity="1"><g transform="translate(155.441264, 279.513417)"><g><path d="M 5.46875 1.671875 C 4.59375 1.429688 3.875 1.0625 3.3125 0.5625 C 2.757812 0.0703125 2.382812 -0.519531 2.1875 -1.21875 C 2 -1.925781 2.019531 -2.695312 2.25 -3.53125 L 4.09375 -10.296875 L 5.546875 -9.90625 L 3.734375 -3.265625 C 3.460938 -2.296875 3.503906 -1.492188 3.859375 -0.859375 C 4.210938 -0.222656 4.851562 0.21875 5.78125 0.46875 C 6.738281 0.726562 7.550781 0.671875 8.21875 0.296875 C 8.894531 -0.0664062 9.375 -0.75 9.65625 -1.75 L 11.4375 -8.296875 L 12.875 -7.890625 L 11.0625 -1.265625 C 10.832031 -0.410156 10.445312 0.273438 9.90625 0.796875 C 9.363281 1.316406 8.710938 1.648438 7.953125 1.796875 C 7.203125 1.953125 6.375 1.910156 5.46875 1.671875 Z M 5.46875 1.671875 "/></g></g></g><g fill="#ffffff" fill-opacity="1"><g transform="translate(167.151663, 282.683474)"><g><path d="M 9 1.3125 L 6.828125 -3.625 L 3.4375 -4.125 L 2.78125 0.40625 L 1.296875 0.1875 L 2.890625 -10.71875 L 8.03125 -9.96875 C 9.25 -9.78125 10.148438 -9.363281 10.734375 -8.71875 C 11.328125 -8.070312 11.550781 -7.257812 11.40625 -6.28125 C 11.289062 -5.476562 10.957031 -4.832031 10.40625 -4.34375 C 9.851562 -3.863281 9.148438 -3.613281 8.296875 -3.59375 L 10.703125 1.5625 Z M 9.921875 -6.484375 C 10.015625 -7.117188 9.867188 -7.628906 9.484375 -8.015625 C 9.109375 -8.410156 8.515625 -8.664062 7.703125 -8.78125 L 4.203125 -9.296875 L 3.609375 -5.28125 L 7.171875 -4.765625 C 7.953125 -4.648438 8.582031 -4.742188 9.0625 -5.046875 C 9.539062 -5.347656 9.828125 -5.828125 9.921875 -6.484375 Z M 9.921875 -6.484375 "/></g></g></g><g fill="#ffffff" fill-opacity="1"><g transform="translate(179.139623, 284.379688)"><g><path d="M 10.015625 -2.765625 C 9.992188 -1.742188 9.578125 -0.960938 8.765625 -0.421875 C 7.960938 0.109375 6.835938 0.351562 5.390625 0.3125 C 2.710938 0.226562 1.1875 -0.75 0.8125 -2.625 L 2.25 -2.875 C 2.394531 -2.207031 2.734375 -1.710938 3.265625 -1.390625 C 3.804688 -1.066406 4.546875 -0.890625 5.484375 -0.859375 C 6.441406 -0.835938 7.1875 -0.984375 7.71875 -1.296875 C 8.257812 -1.609375 8.535156 -2.085938 8.546875 -2.734375 C 8.554688 -3.085938 8.484375 -3.378906 8.328125 -3.609375 C 8.171875 -3.835938 7.941406 -4.023438 7.640625 -4.171875 C 7.347656 -4.328125 7 -4.457031 6.59375 -4.5625 C 6.1875 -4.675781 5.734375 -4.800781 5.234375 -4.9375 C 4.378906 -5.15625 3.726562 -5.367188 3.28125 -5.578125 C 2.832031 -5.785156 2.476562 -6.007812 2.21875 -6.25 C 1.96875 -6.488281 1.78125 -6.769531 1.65625 -7.09375 C 1.53125 -7.414062 1.472656 -7.785156 1.484375 -8.203125 C 1.503906 -9.140625 1.878906 -9.851562 2.609375 -10.34375 C 3.347656 -10.832031 4.390625 -11.054688 5.734375 -11.015625 C 6.984375 -10.984375 7.929688 -10.765625 8.578125 -10.359375 C 9.234375 -9.960938 9.6875 -9.300781 9.9375 -8.375 L 8.453125 -8.15625 C 8.304688 -8.75 8.007812 -9.179688 7.5625 -9.453125 C 7.113281 -9.722656 6.488281 -9.867188 5.6875 -9.890625 C 4.8125 -9.921875 4.140625 -9.796875 3.671875 -9.515625 C 3.203125 -9.234375 2.957031 -8.804688 2.9375 -8.234375 C 2.925781 -7.890625 3.003906 -7.601562 3.171875 -7.375 C 3.347656 -7.15625 3.601562 -6.960938 3.9375 -6.796875 C 4.269531 -6.628906 4.9375 -6.425781 5.9375 -6.1875 C 6.28125 -6.09375 6.617188 -6 6.953125 -5.90625 C 7.285156 -5.820312 7.601562 -5.71875 7.90625 -5.59375 C 8.207031 -5.46875 8.488281 -5.328125 8.75 -5.171875 C 9.019531 -5.015625 9.25 -4.820312 9.4375 -4.59375 C 9.632812 -4.375 9.785156 -4.113281 9.890625 -3.8125 C 9.992188 -3.507812 10.035156 -3.160156 10.015625 -2.765625 Z M 10.015625 -2.765625 "/></g></g></g><g fill="#ffffff" fill-opacity="1"><g transform="translate(190.339216, 284.66524)"><g><path d="M 1.3125 -0.109375 L 0.390625 -11.078125 L 8.71875 -11.78125 L 8.8125 -10.578125 L 1.96875 -10 L 2.265625 -6.484375 L 8.640625 -7.03125 L 8.75 -5.828125 L 2.375 -5.28125 L 2.6875 -1.453125 L 9.84375 -2.0625 L 9.953125 -0.84375 Z M 1.3125 -0.109375 "/></g></g></g><g fill="#ffffff" fill-opacity="1"><g transform="translate(201.499998, 283.690817)"><g><path d="M 9.15625 -4.921875 C 9.351562 -3.921875 9.117188 -3.070312 8.453125 -2.375 C 7.785156 -1.675781 6.738281 -1.1875 5.3125 -0.90625 C 2.6875 -0.375 0.984375 -0.984375 0.203125 -2.734375 L 1.546875 -3.296875 C 1.847656 -2.679688 2.289062 -2.273438 2.875 -2.078125 C 3.46875 -1.890625 4.222656 -1.882812 5.140625 -2.0625 C 6.078125 -2.25 6.773438 -2.554688 7.234375 -2.984375 C 7.691406 -3.410156 7.859375 -3.9375 7.734375 -4.5625 C 7.660156 -4.914062 7.519531 -5.1875 7.3125 -5.375 C 7.101562 -5.5625 6.835938 -5.695312 6.515625 -5.78125 C 6.191406 -5.863281 5.820312 -5.910156 5.40625 -5.921875 C 4.988281 -5.941406 4.519531 -5.960938 4 -5.984375 C 3.113281 -6.003906 2.425781 -6.066406 1.9375 -6.171875 C 1.457031 -6.273438 1.066406 -6.414062 0.765625 -6.59375 C 0.472656 -6.769531 0.226562 -7 0.03125 -7.28125 C -0.164062 -7.570312 -0.304688 -7.921875 -0.390625 -8.328125 C -0.578125 -9.242188 -0.367188 -10.019531 0.234375 -10.65625 C 0.847656 -11.300781 1.8125 -11.753906 3.125 -12.015625 C 4.351562 -12.253906 5.328125 -12.253906 6.046875 -12.015625 C 6.773438 -11.773438 7.363281 -11.222656 7.8125 -10.359375 L 6.421875 -9.84375 C 6.140625 -10.382812 5.75 -10.738281 5.25 -10.90625 C 4.757812 -11.070312 4.117188 -11.078125 3.328125 -10.921875 C 2.472656 -10.742188 1.847656 -10.46875 1.453125 -10.09375 C 1.054688 -9.71875 0.914062 -9.25 1.03125 -8.6875 C 1.09375 -8.34375 1.234375 -8.082031 1.453125 -7.90625 C 1.671875 -7.726562 1.957031 -7.59375 2.3125 -7.5 C 2.675781 -7.414062 3.378906 -7.363281 4.421875 -7.34375 C 4.765625 -7.332031 5.109375 -7.320312 5.453125 -7.3125 C 5.796875 -7.300781 6.128906 -7.269531 6.453125 -7.21875 C 6.773438 -7.164062 7.082031 -7.09375 7.375 -7 C 7.675781 -6.90625 7.941406 -6.765625 8.171875 -6.578125 C 8.410156 -6.398438 8.613281 -6.175781 8.78125 -5.90625 C 8.945312 -5.632812 9.070312 -5.304688 9.15625 -4.921875 Z M 9.15625 -4.921875 "/></g></g></g><g fill="#ffffff" fill-opacity="1"><g transform="translate(212.298254, 281.394403)"><g/></g></g><g fill="#ffffff" fill-opacity="1"><g transform="translate(216.968276, 280.181178)"><g><path d="M 8.546875 -3.1875 L 6.234375 -5.765625 L 1.546875 -4.015625 L 1.484375 -0.546875 L 0.03125 -0.015625 L 0.40625 -11.90625 L 1.984375 -12.5 L 9.96875 -3.71875 Z M 1.5625 -11.140625 L 1.578125 -10.90625 C 1.617188 -10.457031 1.628906 -9.867188 1.609375 -9.140625 L 1.5625 -5.265625 L 5.421875 -6.703125 L 2.828125 -9.609375 C 2.566406 -9.898438 2.289062 -10.226562 2 -10.59375 Z M 1.5625 -11.140625 "/></g></g></g><g fill="#ffffff" fill-opacity="1"><g transform="translate(227.487577, 276.255964)"><g><path d="M 7.515625 -3.859375 L -2 -9.515625 L -1.609375 -8.859375 L -0.984375 -7.703125 L 2.34375 -1.203125 L 1.171875 -0.59375 L -3.859375 -10.390625 L -2.3125 -11.1875 L 7.296875 -5.515625 C 6.765625 -6.390625 6.394531 -7.03125 6.1875 -7.4375 L 2.890625 -13.859375 L 4.09375 -14.46875 L 9.125 -4.671875 Z M 7.515625 -3.859375 "/></g></g></g><g fill="#ffffff" fill-opacity="1"><g transform="translate(238.267329, 270.690053)"><g><path d="M 5.78125 -10.71875 C 6.414062 -9.78125 6.789062 -8.832031 6.90625 -7.875 C 7.019531 -6.914062 6.867188 -6.019531 6.453125 -5.1875 C 6.035156 -4.351562 5.382812 -3.640625 4.5 -3.046875 L 1.09375 -0.734375 L -5.09375 -9.859375 L -2.09375 -11.90625 C -0.539062 -12.945312 0.914062 -13.363281 2.28125 -13.15625 C 3.644531 -12.957031 4.8125 -12.144531 5.78125 -10.71875 Z M 4.546875 -9.875 C 3.785156 -11 2.890625 -11.644531 1.859375 -11.8125 C 0.835938 -11.988281 -0.253906 -11.679688 -1.421875 -10.890625 L -3.171875 -9.703125 L 1.65625 -2.578125 L 3.6875 -3.953125 C 4.351562 -4.398438 4.835938 -4.941406 5.140625 -5.578125 C 5.453125 -6.210938 5.554688 -6.898438 5.453125 -7.640625 C 5.359375 -8.378906 5.054688 -9.125 4.546875 -9.875 Z M 4.546875 -9.875 "/></g></g></g><g fill="#ffffff" fill-opacity="1"><g transform="translate(248.060643, 263.854244)"><g/></g></g><g fill="#ffffff" fill-opacity="1"><g transform="translate(251.985829, 260.922205)"><g><path d="M 7.640625 -7.453125 L 2.515625 -12.703125 C 1.941406 -13.285156 1.410156 -13.863281 0.921875 -14.4375 C 1.378906 -13.59375 1.726562 -12.910156 1.96875 -12.390625 L 5.15625 -5.046875 L 4.421875 -4.3125 L -2.890625 -7.65625 L -4.140625 -8.296875 L -4.90625 -8.734375 L -4.3125 -8.140625 L -3.234375 -7.09375 L 1.890625 -1.84375 L 0.9375 -0.921875 L -6.765625 -8.796875 L -5.359375 -10.171875 L 2.078125 -6.75 C 2.359375 -6.601562 2.660156 -6.4375 2.984375 -6.25 C 3.304688 -6.070312 3.53125 -5.9375 3.65625 -5.84375 C 3.539062 -6.03125 3.378906 -6.316406 3.171875 -6.703125 C 2.972656 -7.097656 2.851562 -7.359375 2.8125 -7.484375 L -0.46875 -14.9375 L 0.890625 -16.265625 L 8.59375 -8.390625 Z M 7.640625 -7.453125 "/></g></g></g><g fill="#ffffff" fill-opacity="1"><g transform="translate(261.927859, 251.101673)"><g><path d="M 2.78125 -12.640625 C 3.695312 -11.921875 4.359375 -11.125 4.765625 -10.25 C 5.179688 -9.375 5.316406 -8.46875 5.171875 -7.53125 C 5.035156 -6.601562 4.625 -5.695312 3.9375 -4.8125 C 3.238281 -3.914062 2.457031 -3.285156 1.59375 -2.921875 C 0.726562 -2.554688 -0.175781 -2.46875 -1.125 -2.65625 C -2.070312 -2.851562 -3.003906 -3.3125 -3.921875 -4.03125 C -5.304688 -5.101562 -6.09375 -6.320312 -6.28125 -7.6875 C -6.46875 -9.0625 -6.035156 -10.425781 -4.984375 -11.78125 C -4.296875 -12.65625 -3.523438 -13.28125 -2.671875 -13.65625 C -1.816406 -14.039062 -0.925781 -14.144531 0 -13.96875 C 0.9375 -13.789062 1.863281 -13.347656 2.78125 -12.640625 Z M 1.84375 -11.4375 C 0.769531 -12.269531 -0.28125 -12.65625 -1.3125 -12.59375 C -2.351562 -12.539062 -3.257812 -12.019531 -4.03125 -11.03125 C -4.800781 -10.03125 -5.09375 -9.019531 -4.90625 -8 C -4.71875 -6.988281 -4.078125 -6.0625 -2.984375 -5.21875 C -1.890625 -4.363281 -0.816406 -3.960938 0.234375 -4.015625 C 1.296875 -4.066406 2.207031 -4.582031 2.96875 -5.5625 C 3.75 -6.5625 4.039062 -7.566406 3.84375 -8.578125 C 3.644531 -9.597656 2.976562 -10.550781 1.84375 -11.4375 Z M 1.84375 -11.4375 "/></g></g></g><g fill="#ffffff" fill-opacity="1"><g transform="translate(269.884275, 240.765176)"><g><path d="M 4.625 -7.828125 L -0.765625 -7.6875 L -2.5 -4.75 L 1.4375 -2.421875 L 0.671875 -1.125 L -8.8125 -6.734375 L -6.171875 -11.203125 C -5.535156 -12.265625 -4.804688 -12.941406 -3.984375 -13.234375 C -3.171875 -13.535156 -2.335938 -13.429688 -1.484375 -12.921875 C -0.785156 -12.515625 -0.316406 -11.960938 -0.078125 -11.265625 C 0.160156 -10.578125 0.128906 -9.832031 -0.171875 -9.03125 L 5.515625 -9.296875 Z M -2.234375 -11.640625 C -2.785156 -11.960938 -3.3125 -12.019531 -3.8125 -11.8125 C -4.320312 -11.613281 -4.785156 -11.160156 -5.203125 -10.453125 L -7 -7.421875 L -3.515625 -5.34375 L -1.6875 -8.4375 C -1.28125 -9.113281 -1.128906 -9.734375 -1.234375 -10.296875 C -1.335938 -10.859375 -1.671875 -11.304688 -2.234375 -11.640625 Z M -2.234375 -11.640625 "/></g></g></g><g fill="#ffffff" fill-opacity="1"><g transform="translate(276.002811, 230.318631)"><g><path d="M 0.53125 -1.203125 L -9.546875 -5.671875 L -6.15625 -13.3125 L -5.03125 -12.8125 L -7.8125 -6.546875 L -4.59375 -5.125 L -2 -10.953125 L -0.890625 -10.453125 L -3.484375 -4.625 L 0.03125 -3.078125 L 2.9375 -9.625 L 4.046875 -9.125 Z M 0.53125 -1.203125 "/></g></g></g><g fill="#ffffff" fill-opacity="1"><g transform="translate(280.350536, 220.171803)"><g/></g></g><g clip-path="url(#7ce54f20a2)"><g clip-path="url(#49d2b8cafb)"><path fill="#cea348" d="M 88.269531 189.742188 L 100.433594 189.742188 L 100.433594 201.902344 L 88.269531 201.902344 Z M 88.269531 189.742188 " fill-opacity="1" fill-rule="nonzero"/></g></g><g clip-path="url(#1ba1b97194)"><g clip-path="url(#84ec60acdd)"><path fill="#cea348" d="M 274.757812 189.742188 L 286.921875 189.742188 L 286.921875 201.902344 L 274.757812 201.902344 Z M 274.757812 189.742188 " fill-opacity="1" fill-rule="nonzero"/></g></g><g fill="#025699" fill-opacity="1"><g transform="translate(156.818779, 238.359151)"><g><path d="M 0.671875 0 L 0.671875 -6.890625 L 6.09375 -6.890625 L 6.09375 -5.78125 L 2.109375 -5.78125 L 2.109375 -4.046875 L 5.796875 -4.046875 L 5.796875 -2.921875 L 2.109375 -2.921875 L 2.109375 -1.109375 L 6.296875 -1.109375 L 6.296875 0 Z M 0.671875 0 "/></g></g></g><g fill="#025699" fill-opacity="1"><g transform="translate(164.696274, 238.359151)"><g><path d="M 6.296875 -1.984375 C 6.296875 -1.304688 6.039062 -0.789062 5.53125 -0.4375 C 5.03125 -0.0820312 4.296875 0.09375 3.328125 0.09375 C 2.453125 0.09375 1.757812 -0.0625 1.25 -0.375 C 0.75 -0.6875 0.425781 -1.160156 0.28125 -1.796875 L 1.6875 -2.03125 C 1.78125 -1.664062 1.960938 -1.398438 2.234375 -1.234375 C 2.503906 -1.066406 2.882812 -0.984375 3.375 -0.984375 C 4.382812 -0.984375 4.890625 -1.289062 4.890625 -1.90625 C 4.890625 -2.101562 4.828125 -2.265625 4.703125 -2.390625 C 4.585938 -2.515625 4.425781 -2.617188 4.21875 -2.703125 C 4.007812 -2.785156 3.609375 -2.890625 3.015625 -3.015625 C 2.492188 -3.128906 2.132812 -3.222656 1.9375 -3.296875 C 1.738281 -3.367188 1.554688 -3.457031 1.390625 -3.5625 C 1.222656 -3.664062 1.082031 -3.785156 0.96875 -3.921875 C 0.851562 -4.054688 0.765625 -4.21875 0.703125 -4.40625 C 0.640625 -4.601562 0.609375 -4.820312 0.609375 -5.0625 C 0.609375 -5.6875 0.84375 -6.164062 1.3125 -6.5 C 1.78125 -6.832031 2.460938 -7 3.359375 -7 C 4.210938 -7 4.851562 -6.863281 5.28125 -6.59375 C 5.707031 -6.320312 5.984375 -5.878906 6.109375 -5.265625 L 4.703125 -5.078125 C 4.640625 -5.367188 4.492188 -5.585938 4.265625 -5.734375 C 4.046875 -5.890625 3.734375 -5.96875 3.328125 -5.96875 C 2.453125 -5.96875 2.015625 -5.695312 2.015625 -5.15625 C 2.015625 -4.96875 2.0625 -4.816406 2.15625 -4.703125 C 2.25 -4.585938 2.382812 -4.488281 2.5625 -4.40625 C 2.75 -4.332031 3.117188 -4.238281 3.671875 -4.125 C 4.335938 -3.976562 4.8125 -3.84375 5.09375 -3.71875 C 5.382812 -3.601562 5.613281 -3.46875 5.78125 -3.3125 C 5.945312 -3.15625 6.070312 -2.96875 6.15625 -2.75 C 6.25 -2.53125 6.296875 -2.273438 6.296875 -1.984375 Z M 6.296875 -1.984375 "/></g></g></g><g fill="#025699" fill-opacity="1"><g transform="translate(172.57377, 238.359151)"><g><path d="M 3.78125 -5.78125 L 3.78125 0 L 2.34375 0 L 2.34375 -5.78125 L 0.109375 -5.78125 L 0.109375 -6.890625 L 6.015625 -6.890625 L 6.015625 -5.78125 Z M 3.78125 -5.78125 "/></g></g></g><g fill="#025699" fill-opacity="1"><g transform="translate(179.888536, 238.359151)"><g><path d="M 6.8125 -3.5 C 6.8125 -2.789062 6.671875 -2.171875 6.390625 -1.640625 C 6.109375 -1.109375 5.710938 -0.703125 5.203125 -0.421875 C 4.703125 -0.140625 4.117188 0 3.453125 0 L 0.671875 0 L 0.671875 -6.890625 L 3.171875 -6.890625 C 4.328125 -6.890625 5.222656 -6.597656 5.859375 -6.015625 C 6.492188 -5.429688 6.8125 -4.59375 6.8125 -3.5 Z M 5.359375 -3.5 C 5.359375 -4.238281 5.164062 -4.800781 4.78125 -5.1875 C 4.394531 -5.582031 3.847656 -5.78125 3.140625 -5.78125 L 2.109375 -5.78125 L 2.109375 -1.109375 L 3.328125 -1.109375 C 3.953125 -1.109375 4.445312 -1.320312 4.8125 -1.75 C 5.175781 -2.175781 5.359375 -2.757812 5.359375 -3.5 Z M 5.359375 -3.5 "/></g></g></g><g fill="#025699" fill-opacity="1"><g transform="translate(188.318983, 238.359151)"><g><path d="M 0.6875 0 L 0.6875 -1.484375 L 2.09375 -1.484375 L 2.09375 0 Z M 0.6875 0 "/></g></g></g><g fill="#025699" fill-opacity="1"><g transform="translate(192.296499, 238.359151)"><g><path d="M 0.34375 0 L 0.34375 -0.953125 C 0.519531 -1.347656 0.773438 -1.734375 1.109375 -2.109375 C 1.441406 -2.484375 1.859375 -2.875 2.359375 -3.28125 C 2.835938 -3.675781 3.175781 -4 3.375 -4.25 C 3.570312 -4.5 3.671875 -4.75 3.671875 -5 C 3.671875 -5.59375 3.367188 -5.890625 2.765625 -5.890625 C 2.472656 -5.890625 2.25 -5.8125 2.09375 -5.65625 C 1.9375 -5.5 1.835938 -5.265625 1.796875 -4.953125 L 0.40625 -5.03125 C 0.476562 -5.664062 0.710938 -6.148438 1.109375 -6.484375 C 1.515625 -6.828125 2.0625 -7 2.75 -7 C 3.5 -7 4.070312 -6.828125 4.46875 -6.484375 C 4.863281 -6.140625 5.0625 -5.664062 5.0625 -5.0625 C 5.0625 -4.738281 5 -4.445312 4.875 -4.1875 C 4.75 -3.925781 4.582031 -3.679688 4.375 -3.453125 C 4.175781 -3.234375 3.957031 -3.023438 3.71875 -2.828125 C 3.476562 -2.640625 3.242188 -2.453125 3.015625 -2.265625 C 2.785156 -2.085938 2.578125 -1.90625 2.390625 -1.71875 C 2.203125 -1.539062 2.0625 -1.34375 1.96875 -1.125 L 5.171875 -1.125 L 5.171875 0 Z M 0.34375 0 "/></g></g></g><g fill="#025699" fill-opacity="1"><g transform="translate(199.063211, 238.359151)"><g><path d="M 5.15625 -3.453125 C 5.15625 -2.285156 4.957031 -1.398438 4.5625 -0.796875 C 4.164062 -0.203125 3.566406 0.09375 2.765625 0.09375 C 1.179688 0.09375 0.390625 -1.085938 0.390625 -3.453125 C 0.390625 -4.273438 0.476562 -4.945312 0.65625 -5.46875 C 0.832031 -5.988281 1.09375 -6.375 1.4375 -6.625 C 1.78125 -6.875 2.234375 -7 2.796875 -7 C 3.617188 -7 4.21875 -6.703125 4.59375 -6.109375 C 4.96875 -5.515625 5.15625 -4.628906 5.15625 -3.453125 Z M 3.78125 -3.453125 C 3.78125 -4.085938 3.75 -4.578125 3.6875 -4.921875 C 3.625 -5.273438 3.523438 -5.53125 3.390625 -5.6875 C 3.253906 -5.84375 3.054688 -5.921875 2.796875 -5.921875 C 2.515625 -5.921875 2.300781 -5.84375 2.15625 -5.6875 C 2.019531 -5.53125 1.921875 -5.273438 1.859375 -4.921875 C 1.796875 -4.578125 1.765625 -4.085938 1.765625 -3.453125 C 1.765625 -2.816406 1.796875 -2.320312 1.859375 -1.96875 C 1.929688 -1.613281 2.035156 -1.359375 2.171875 -1.203125 C 2.304688 -1.054688 2.503906 -0.984375 2.765625 -0.984375 C 3.035156 -0.984375 3.238281 -1.0625 3.375 -1.21875 C 3.519531 -1.382812 3.625 -1.644531 3.6875 -2 C 3.75 -2.351562 3.78125 -2.835938 3.78125 -3.453125 Z M 3.78125 -3.453125 "/></g></g></g><g fill="#025699" fill-opacity="1"><g transform="translate(205.829923, 238.359151)"><g><path d="M 0.34375 0 L 0.34375 -0.953125 C 0.519531 -1.347656 0.773438 -1.734375 1.109375 -2.109375 C 1.441406 -2.484375 1.859375 -2.875 2.359375 -3.28125 C 2.835938 -3.675781 3.175781 -4 3.375 -4.25 C 3.570312 -4.5 3.671875 -4.75 3.671875 -5 C 3.671875 -5.59375 3.367188 -5.890625 2.765625 -5.890625 C 2.472656 -5.890625 2.25 -5.8125 2.09375 -5.65625 C 1.9375 -5.5 1.835938 -5.265625 1.796875 -4.953125 L 0.40625 -5.03125 C 0.476562 -5.664062 0.710938 -6.148438 1.109375 -6.484375 C 1.515625 -6.828125 2.0625 -7 2.75 -7 C 3.5 -7 4.070312 -6.828125 4.46875 -6.484375 C 4.863281 -6.140625 5.0625 -5.664062 5.0625 -5.0625 C 5.0625 -4.738281 5 -4.445312 4.875 -4.1875 C 4.75 -3.925781 4.582031 -3.679688 4.375 -3.453125 C 4.175781 -3.234375 3.957031 -3.023438 3.71875 -2.828125 C 3.476562 -2.640625 3.242188 -2.453125 3.015625 -2.265625 C 2.785156 -2.085938 2.578125 -1.90625 2.390625 -1.71875 C 2.203125 -1.539062 2.0625 -1.34375 1.96875 -1.125 L 5.171875 -1.125 L 5.171875 0 Z M 0.34375 0 "/></g></g></g><g fill="#025699" fill-opacity="1"><g transform="translate(212.596635, 238.359151)"><g><path d="M 5.296875 -2.296875 C 5.296875 -1.566406 5.066406 -0.984375 4.609375 -0.546875 C 4.148438 -0.117188 3.523438 0.09375 2.734375 0.09375 C 2.046875 0.09375 1.492188 -0.0625 1.078125 -0.375 C 0.660156 -0.6875 0.40625 -1.132812 0.3125 -1.71875 L 1.6875 -1.828125 C 1.757812 -1.535156 1.882812 -1.320312 2.0625 -1.1875 C 2.25 -1.0625 2.476562 -1 2.75 -1 C 3.09375 -1 3.363281 -1.101562 3.5625 -1.3125 C 3.769531 -1.53125 3.875 -1.847656 3.875 -2.265625 C 3.875 -2.628906 3.773438 -2.914062 3.578125 -3.125 C 3.390625 -3.34375 3.125 -3.453125 2.78125 -3.453125 C 2.394531 -3.453125 2.082031 -3.304688 1.84375 -3.015625 L 0.515625 -3.015625 L 0.75 -6.890625 L 4.890625 -6.890625 L 4.890625 -5.875 L 2 -5.875 L 1.890625 -4.125 C 2.210938 -4.414062 2.625 -4.5625 3.125 -4.5625 C 3.78125 -4.5625 4.304688 -4.359375 4.703125 -3.953125 C 5.097656 -3.546875 5.296875 -2.992188 5.296875 -2.296875 Z M 5.296875 -2.296875 "/></g></g></g></svg>